<svg width="32" height="32" viewBox="0 0 32 32" fill="none" xmlns="http://www.w3.org/2000/svg">
<path d="M30.2248 20.9787L24.5396 29.0825C24.1241 29.6747 23.5726 30.1581 22.9316 30.4918C22.2906 30.8255 21.5789 30.9998 20.8565 31H11.3399C10.6176 30.9998 9.90588 30.8255 9.26487 30.4918C8.62387 30.1581 8.07236 29.6747 7.65688 29.0825L1.82332 20.7657C1.44093 20.2219 1.18305 19.6001 1.06811 18.9449C0.953167 18.2897 0.984 17.6171 1.1584 16.9752L3.56103 8.10588C3.73369 7.47769 4.04161 6.89506 4.46312 6.39898C4.88462 5.9029 5.40947 5.50542 6.00074 5.23452L14.2715 1.41429C14.8626 1.14134 15.5056 1 16.1563 1C16.8071 1 17.4501 1.14134 18.0411 1.41429L25.9337 5.05862C26.5337 5.33411 27.0661 5.73826 27.4932 6.24254C27.9203 6.74682 28.2318 7.33893 28.4055 7.97706L30.9046 17.2105C31.0741 17.8501 31.1011 18.5193 30.9836 19.1705C30.8662 19.8218 30.6071 20.4391 30.2248 20.9787V20.9787Z" fill="#000D1B" stroke="#000D1B" stroke-width="0.0494929" stroke-miterlimit="10"/>
<path fill-rule="evenodd" clip-rule="evenodd" d="M23.1762 17.2611L24.061 20.2305L25.7401 19.7301L24.1507 14.3962L23.9002 13.5558L23.0601 13.8071L16.5418 15.7568L17.0439 17.4354L20.1785 16.4978C20.3447 17.0744 20.3272 17.6892 20.1273 18.256C19.9136 18.8402 19.5494 19.3573 19.0719 19.7549C18.566 20.1809 17.9765 20.4957 17.3416 20.679C16.5741 20.9288 15.7517 20.9558 14.9696 20.7567C14.1874 20.5577 13.4775 20.1408 12.9219 19.5542C12.3114 18.9069 11.8691 18.1191 11.6341 17.2601C11.3641 16.4174 11.2971 15.5225 11.4388 14.6489C11.5668 13.8737 11.9094 13.15 12.4275 12.5604C12.9781 11.9545 13.6885 11.5173 14.4767 11.2994C15.2303 11.0477 16.0444 11.044 16.8003 11.2886C17.5562 11.5333 18.2144 12.0136 18.6788 12.6595L20.9282 10.6032C20.4552 9.9539 19.8395 9.42239 19.1287 9.04982C18.353 8.63695 17.5039 8.38104 16.6297 8.29668C15.6299 8.19994 14.6209 8.30697 13.6635 8.61132C12.6781 8.89522 11.7588 9.37272 10.9593 10.016C10.2059 10.6288 9.583 11.387 9.12763 12.2457C8.66709 13.1123 8.38864 14.0642 8.30945 15.0428C8.22459 16.0923 8.34036 17.1484 8.65057 18.1545C8.93932 19.1653 9.42583 20.1086 10.0818 20.9292C10.6991 21.6972 11.4621 22.335 12.3268 22.8057C13.1914 23.2765 14.1406 23.5708 15.1194 23.6717C16.1368 23.777 17.1649 23.6759 18.1425 23.3744C18.9682 23.1255 19.7468 22.7403 20.4462 22.2348C21.1629 21.7217 21.7704 21.0707 22.2334 20.3197C22.7217 19.5243 23.0305 18.6313 23.1381 17.7036C23.1554 17.5564 23.1681 17.4088 23.1762 17.2611Z" fill="white"/>
</svg>
