<svg width="113" height="32" viewBox="0 0 113 32" fill="none" xmlns="http://www.w3.org/2000/svg">
<path d="M30.2248 20.9787L24.5396 29.0825C24.1241 29.6747 23.5726 30.1581 22.9316 30.4918C22.2906 30.8255 21.5789 30.9998 20.8565 31H11.3399C10.6176 30.9998 9.90588 30.8255 9.26487 30.4918C8.62387 30.1581 8.07236 29.6747 7.65688 29.0825L1.82332 20.7657C1.44093 20.2219 1.18305 19.6001 1.06811 18.9449C0.953167 18.2897 0.984 17.6171 1.1584 16.9752L3.56103 8.10589C3.73369 7.47769 4.04161 6.89506 4.46312 6.39898C4.88462 5.9029 5.40947 5.50542 6.00074 5.23452L14.2715 1.41429C14.8626 1.14134 15.5056 1 16.1563 1C16.8071 1 17.4501 1.14134 18.0411 1.41429L25.9337 5.05862C26.5337 5.33411 27.0661 5.73826 27.4932 6.24254C27.9203 6.74682 28.2318 7.33893 28.4055 7.97706L30.9046 17.2105C31.0741 17.8501 31.1011 18.5193 30.9836 19.1705C30.8662 19.8218 30.6071 20.4391 30.2248 20.9787Z" fill="#000D1B" stroke="#000D1B" stroke-width="0.0494929" stroke-miterlimit="10"/>
<path fill-rule="evenodd" clip-rule="evenodd" d="M23.1762 17.2611L24.061 20.2305L25.7401 19.7301L24.1507 14.3962L23.9002 13.5558L23.0601 13.8071L16.5418 15.7568L17.0439 17.4354L20.1785 16.4978C20.3447 17.0744 20.3272 17.6892 20.1273 18.256C19.9136 18.8402 19.5494 19.3573 19.0719 19.7549C18.566 20.1809 17.9765 20.4957 17.3416 20.679C16.5741 20.9288 15.7517 20.9558 14.9696 20.7567C14.1874 20.5577 13.4775 20.1408 12.9219 19.5542C12.3114 18.9069 11.8691 18.1191 11.6341 17.2601C11.3641 16.4174 11.2971 15.5225 11.4388 14.6489C11.5668 13.8737 11.9094 13.15 12.4275 12.5604C12.9781 11.9545 13.6885 11.5173 14.4767 11.2994C15.2303 11.0477 16.0444 11.044 16.8003 11.2886C17.5562 11.5333 18.2144 12.0136 18.6788 12.6595L20.9282 10.6032C20.4552 9.9539 19.8395 9.42239 19.1287 9.04982C18.353 8.63695 17.5039 8.38104 16.6297 8.29668C15.6299 8.19994 14.6209 8.30697 13.6635 8.61132C12.6781 8.89522 11.7588 9.37272 10.9593 10.016C10.2059 10.6288 9.583 11.387 9.12763 12.2457C8.66709 13.1123 8.38863 14.0642 8.30945 15.0428C8.22459 16.0923 8.34036 17.1484 8.65057 18.1545C8.93932 19.1653 9.42583 20.1086 10.0818 20.9292C10.6991 21.6972 11.4621 22.335 12.3268 22.8057C13.1914 23.2765 14.1406 23.5708 15.1194 23.6717C16.1368 23.777 17.1649 23.6759 18.1425 23.3744C18.9682 23.1255 19.7468 22.7403 20.4462 22.2348C21.1629 21.7217 21.7704 21.0707 22.2334 20.3197C22.7217 19.5243 23.0305 18.6313 23.1381 17.7036C23.1554 17.5564 23.1681 17.4088 23.1762 17.2611Z" fill="white"/>
<path d="M42.9669 25.2517C41.8482 25.2517 40.8133 25.0489 39.8624 24.6434C38.9115 24.2379 38.0794 23.6715 37.3662 22.9443C36.6531 22.2172 36.0937 21.3641 35.6881 20.3852C35.2966 19.4063 35.1008 18.3366 35.1008 17.1759C35.1008 16.0152 35.2896 14.9454 35.6672 13.9665C36.0587 12.9736 36.6041 12.1206 37.3033 11.4074C38.0165 10.6802 38.8486 10.1209 39.7995 9.72931C40.7504 9.32377 41.7852 9.121 42.904 9.121C44.0227 9.121 45.0226 9.30979 45.9036 9.68736C46.7986 10.0649 47.5537 10.5684 48.169 11.1976C48.7843 11.8129 49.2248 12.4912 49.4905 13.2323L46.9524 14.449C46.6587 13.6379 46.1623 12.9806 45.4631 12.4772C44.7639 11.9738 43.9108 11.7221 42.904 11.7221C41.9251 11.7221 41.0581 11.9528 40.3029 12.4143C39.5618 12.8757 38.9814 13.512 38.5619 14.3231C38.1563 15.1342 37.9536 16.0851 37.9536 17.1759C37.9536 18.2666 38.1633 19.2245 38.5829 20.0496C39.0164 20.8607 39.6107 21.497 40.3658 21.9584C41.121 22.4199 41.988 22.6507 42.9669 22.6507C43.764 22.6507 44.4982 22.4968 45.1694 22.1892C45.8406 21.8676 46.379 21.4201 46.7846 20.8467C47.1901 20.2594 47.3929 19.5672 47.3929 18.7701V17.5744L48.6934 18.7071H42.904V16.2949H50.2456V17.8681C50.2456 19.0707 50.0429 20.1335 49.6373 21.0565C49.2318 21.9794 48.6794 22.7555 47.9802 23.3848C47.295 24.0001 46.5189 24.4686 45.6519 24.7902C44.7848 25.0979 43.8898 25.2517 42.9669 25.2517ZM57.852 25.2517C56.7333 25.2517 55.7124 24.993 54.7895 24.4756C53.8805 23.9582 53.1533 23.252 52.6079 22.357C52.0765 21.462 51.8108 20.4412 51.8108 19.2945C51.8108 18.1478 52.0765 17.1269 52.6079 16.2319C53.1533 15.337 53.8805 14.6308 54.7895 14.1133C55.6984 13.5959 56.7193 13.3372 57.852 13.3372C58.9707 13.3372 59.9846 13.5959 60.8935 14.1133C61.8025 14.6308 62.5227 15.337 63.0541 16.2319C63.5995 17.1129 63.8722 18.1338 63.8722 19.2945C63.8722 20.4412 63.5995 21.462 63.0541 22.357C62.5087 23.252 61.7815 23.9582 60.8726 24.4756C59.9636 24.993 58.9567 25.2517 57.852 25.2517ZM57.852 22.7346C58.4673 22.7346 59.0057 22.5877 59.4672 22.2941C59.9426 22.0004 60.3132 21.5949 60.5789 21.0774C60.8586 20.546 60.9984 19.9517 60.9984 19.2945C60.9984 18.6232 60.8586 18.0359 60.5789 17.5325C60.3132 17.0151 59.9426 16.6095 59.4672 16.3158C59.0057 16.0082 58.4673 15.8544 57.852 15.8544C57.2227 15.8544 56.6703 16.0082 56.1949 16.3158C55.7194 16.6095 55.3418 17.0151 55.0621 17.5325C54.7964 18.0359 54.6636 18.6232 54.6636 19.2945C54.6636 19.9517 54.7964 20.546 55.0621 21.0774C55.3418 21.5949 55.7194 22.0004 56.1949 22.2941C56.6703 22.5877 57.2227 22.7346 57.852 22.7346ZM70.0254 25.2517C69.1444 25.2517 68.3753 25.0559 67.718 24.6644C67.0747 24.2728 66.5783 23.7274 66.2287 23.0282C65.8931 22.329 65.7253 21.511 65.7253 20.574V13.5889H68.4732V20.3433C68.4732 20.8187 68.5641 21.2383 68.7459 21.6019C68.9416 21.9515 69.2143 22.2311 69.5639 22.4409C69.9275 22.6367 70.3331 22.7346 70.7805 22.7346C71.228 22.7346 71.6266 22.6367 71.9762 22.4409C72.3258 22.2311 72.5985 21.9445 72.7943 21.5809C72.99 21.2173 73.0879 20.7838 73.0879 20.2804V13.5889H75.8358V25H73.2348V22.7555L73.4655 23.1541C73.1998 23.8533 72.7593 24.3777 72.144 24.7273C71.5427 25.0769 70.8365 25.2517 70.0254 25.2517ZM78.3902 25V13.5889H80.9702V16.1271L80.7605 15.7495C81.0262 14.8965 81.4387 14.3021 81.9981 13.9665C82.5714 13.6309 83.2566 13.4631 84.0537 13.4631H84.725V15.8963H83.7391C82.956 15.8963 82.3267 16.141 81.8512 16.6305C81.3758 17.1059 81.138 17.7772 81.138 18.6442V25H78.3902ZM91.5427 25.2517C90.438 25.2517 89.4521 24.993 88.5851 24.4756C87.7181 23.9442 87.0329 23.224 86.5294 22.315C86.026 21.4061 85.7743 20.3992 85.7743 19.2945C85.7743 18.1757 86.026 17.1689 86.5294 16.2739C87.0329 15.3789 87.7181 14.6657 88.5851 14.1343C89.4661 13.6029 90.445 13.3372 91.5218 13.3372C92.3888 13.3372 93.1579 13.512 93.8291 13.8616C94.5144 14.1972 95.0528 14.6727 95.4443 15.288L95.0248 15.8544V9.121H97.7727V25H95.1716V22.7975L95.4653 23.3429C95.0737 23.9582 94.5284 24.4336 93.8291 24.7693C93.1299 25.0909 92.3678 25.2517 91.5427 25.2517ZM91.8364 22.7346C92.4657 22.7346 93.0181 22.5877 93.4935 22.2941C93.969 22.0004 94.3396 21.5949 94.6053 21.0774C94.885 20.56 95.0248 19.9657 95.0248 19.2945C95.0248 18.6372 94.885 18.0499 94.6053 17.5325C94.3396 17.0011 93.969 16.5885 93.4935 16.2949C93.0181 16.0012 92.4657 15.8544 91.8364 15.8544C91.2211 15.8544 90.6687 16.0082 90.1793 16.3158C89.6898 16.6095 89.3053 17.0151 89.0256 17.5325C88.7599 18.0359 88.627 18.6232 88.627 19.2945C88.627 19.9657 88.7599 20.56 89.0256 21.0774C89.3053 21.5949 89.6898 22.0004 90.1793 22.2941C90.6687 22.5877 91.2211 22.7346 91.8364 22.7346ZM105.741 25.2517C104.566 25.2517 103.539 24.986 102.658 24.4546C101.777 23.9232 101.091 23.203 100.602 22.2941C100.112 21.3851 99.8677 20.3782 99.8677 19.2735C99.8677 18.1268 100.112 17.1129 100.602 16.2319C101.105 15.337 101.784 14.6308 102.637 14.1133C103.504 13.5959 104.468 13.3372 105.531 13.3372C106.426 13.3372 107.209 13.4841 107.881 13.7777C108.566 14.0714 109.146 14.4769 109.622 14.9943C110.097 15.5118 110.461 16.1061 110.712 16.7773C110.964 17.4346 111.09 18.1478 111.09 18.9169C111.09 19.1127 111.076 19.3154 111.048 19.5252C111.034 19.735 110.999 19.9168 110.943 20.0706H102.133V17.973H109.391L108.09 18.9588C108.216 18.3156 108.181 17.7422 107.985 17.2388C107.804 16.7354 107.496 16.3368 107.063 16.0432C106.643 15.7495 106.133 15.6027 105.531 15.6027C104.958 15.6027 104.447 15.7495 104 16.0432C103.553 16.3228 103.21 16.7424 102.972 17.3017C102.748 17.8471 102.665 18.5114 102.72 19.2945C102.665 19.9937 102.755 20.616 102.993 21.1614C103.245 21.6927 103.608 22.1053 104.084 22.3989C104.573 22.6926 105.133 22.8394 105.762 22.8394C106.391 22.8394 106.923 22.7066 107.356 22.4409C107.804 22.1752 108.153 21.8186 108.405 21.3711L110.628 22.4619C110.405 23.0073 110.055 23.4897 109.58 23.9092C109.104 24.3288 108.538 24.6574 107.881 24.8951C107.237 25.1328 106.524 25.2517 105.741 25.2517Z" fill="#000D1B"/>
</svg>
